<svg width="96" height="96" xmlns="http://www.w3.org/2000/svg" xmlns:xlink="http://www.w3.org/1999/xlink" xml:space="preserve" overflow="hidden"><g transform="translate(-398 -595)"><path d="M446 639C441 639 437 635 437 630 437 625 441 621 446 621 451 621 455 625 455 630 455 635 451 639 446 639ZM446 609C439.1 609 432.6 612.4 428.7 618.2 424.8 623.9 424 631.2 426.5 637.7L436 658.7 444.2 675.9C444.5 676.6 445.2 677 446 677 446.8 677 447.5 676.6 447.8 675.9L456 658.7 465.5 637.7C468 631.2 467.2 623.9 463.3 618.2 459.4 612.4 452.9 609 446 609Z" fill="#FFFFFF"/></g></svg>